<svg width="144" height="145" viewBox="0 0 144 145" fill="none" xmlns="http://www.w3.org/2000/svg">
<path d="M72 60.4541C85.2548 60.4541 96 49.7089 96 36.4541C96 23.1993 85.2548 12.4541 72 12.4541C58.7452 12.4541 48 23.1993 48 36.4541C48 49.7089 58.7452 60.4541 72 60.4541Z" stroke="#F3363C" stroke-width="5"/>
<path d="M90 124.144C84.54 125.626 78.444 126.454 72 126.454C48.804 126.454 30 115.714 30 102.454C30 89.1941 48.804 78.4541 72 78.4541C95.196 78.4541 114 89.1941 114 102.454C114 104.524 113.538 106.534 112.68 108.454" stroke="#F3363C" stroke-width="5" stroke-linecap="round"/>
</svg>
